# xmcd
#
# Track frame offsets: 
#        150
#        18663
#        41210
#        56657
#        76721
#        96934
#        125778
#        148646
#        170040
#        184527
#        199387
#        225333
#        241835
#        255807
#        270466
#
# Disc length: 3911 seconds
#
# Revision: 0
# Processed by: cddbd v1.5.2PL0 Copyright (c) Steve Scherf et al.
# Submitted via: ExactAudioCopy v1.0b4
#
DISCID=c90f450f
DTITLE=Teresa Teng - Thousands Of Words (2013) CD2
DYEAR=2013
DGENRE=
TTITLE0=Copacabana
TTITLE1=Fire
TTITLE2=Beat It
TTITLE3=Careless Whisper
TTITLE4=My Way
TTITLE5=A Good Heart
TTITLE6=Bridge Over Troubled Water
TTITLE7=Every Breath You Take
TTITLE8=Love The World Away
TTITLE9=New York New York
TTITLE10=The Power Of Love
TTITLE11=Flash Dance What A Feeling
TTITLE12=More Than I Can Say
TTITLE13=Can't Help Falling In Love With You
TTITLE14=I Just Called To Say I Love You
EXTD=
EXTT0=
EXTT1=
EXTT2=
EXTT3=
EXTT4=
EXTT5=
EXTT6=
EXTT7=
EXTT8=
EXTT9=
EXTT10=
EXTT11=
EXTT12=
EXTT13=
EXTT14=
PLAYORDER=
